<svg width="160" height="44" viewBox="0 0 160 44" fill="none" xmlns="http://www.w3.org/2000/svg">
<rect x="1.17526" y="0.401824" width="157.646" height="43.1941" rx="21.597" fill="#141414"/>
<rect x="1.17526" y="0.401824" width="157.646" height="43.1941" rx="21.597" stroke="#DDDDEB" stroke-width="0.803648"/>
<path d="M24.8953 10.2053C22.4702 10.2348 20.1083 10.9636 18.1066 12.3001C16.105 13.6365 14.553 15.5209 13.6459 17.7161C12.7388 19.9114 12.5171 22.3194 13.0087 24.6373C13.5003 26.9552 14.6833 29.0794 16.4088 30.7427C18.1343 32.406 20.3253 33.5342 22.706 33.9851C25.0868 34.4361 27.5511 34.1897 29.7888 33.2771C32.0265 32.3645 33.9377 30.8264 35.2819 28.8562C36.6261 26.886 37.3434 24.5718 37.3434 22.2048C37.3228 19.0025 35.9998 15.9392 33.6654 13.6889C31.3309 11.4386 28.1763 10.1855 24.8953 10.2053Z" fill="#00EDBE"/>
<path d="M29.8154 17.7674C29.7821 17.1674 29.932 16.5712 30.2462 16.0544H20.2117C20.1218 16.0541 20.0326 16.0711 19.9494 16.1044C19.8662 16.1377 19.7905 16.1867 19.7267 16.2485C19.6629 16.3104 19.6122 16.3839 19.5775 16.4648C19.5428 16.5458 19.5247 16.6327 19.5244 16.7204V18.814C19.5247 18.9017 19.5428 18.9886 19.5775 19.0696C19.6122 19.1505 19.6629 19.224 19.7267 19.2859C19.7905 19.3477 19.8662 19.3967 19.9494 19.43C20.0326 19.4633 20.1218 19.4803 20.2117 19.4799H30.2462C29.932 18.9632 29.7821 18.3674 29.8154 17.7674Z" fill="#141BEB"/>
<path d="M17.9599 22.2379C17.9926 22.8379 17.8421 23.4339 17.5273 23.9504H27.5619C27.6518 23.9507 27.741 23.9338 27.8242 23.9005C27.9074 23.8672 27.983 23.8182 28.0469 23.7563C28.1107 23.6945 28.1614 23.621 28.1961 23.54C28.2308 23.459 28.2489 23.3722 28.2492 23.2844V21.1909C28.2489 21.1031 28.2308 21.0163 28.1961 20.9353C28.1614 20.8543 28.1107 20.7808 28.0469 20.719C27.983 20.6571 27.9074 20.6082 27.8242 20.5749C27.741 20.5416 27.6518 20.5246 27.5619 20.5249H17.5273C17.8416 21.0417 17.9915 21.6378 17.9582 22.2379" fill="#141BEB"/>
<path d="M29.8154 26.7086C29.7821 26.1085 29.932 25.5124 30.2462 24.9956H20.2117C20.1218 24.9953 20.0326 25.0123 19.9494 25.0456C19.8662 25.0789 19.7905 25.1278 19.7267 25.1897C19.6629 25.2515 19.6122 25.325 19.5775 25.406C19.5428 25.487 19.5247 25.5738 19.5244 25.6616V27.7551C19.5247 27.8429 19.5428 27.9297 19.5775 28.0107C19.6122 28.0917 19.6629 28.1652 19.7267 28.227C19.7905 28.2889 19.8662 28.3379 19.9494 28.3712C20.0326 28.4045 20.1218 28.4214 20.2117 28.4211H30.2462C29.932 27.9044 29.7821 27.3082 29.8154 26.7082" fill="#141BEB"/>
<path d="M106.594 20.4488H104.718V24.7188C104.718 25.0081 104.784 25.2181 104.914 25.3488C105.054 25.4701 105.288 25.5308 105.614 25.5308H106.594V26.8608H105.334C103.85 26.8608 103.108 26.1468 103.108 24.7188V20.4488H102.198V19.1468H103.108V17.2288H104.718V19.1468H106.594V20.4488Z" fill="white"/>
<path d="M97.7097 26.9868C96.5897 26.9868 95.6797 26.6228 94.9797 25.8948C94.2797 25.1668 93.9297 24.2054 93.9297 23.0108C93.9297 21.8068 94.2797 20.8408 94.9797 20.1128C95.689 19.3848 96.599 19.0208 97.7097 19.0208C98.643 19.0208 99.413 19.2448 100.02 19.6928C100.636 20.1314 101.051 20.7614 101.266 21.5828H99.5437C99.2544 20.7708 98.643 20.3648 97.7097 20.3648C97.0564 20.3648 96.5337 20.5981 96.1417 21.0648C95.759 21.5221 95.5677 22.1661 95.5677 22.9968C95.5677 23.8274 95.759 24.4761 96.1417 24.9428C96.5337 25.4094 97.0564 25.6428 97.7097 25.6428C98.6337 25.6428 99.245 25.2368 99.5437 24.4248H101.266C101.042 25.2088 100.622 25.8341 100.006 26.3008C99.3897 26.7581 98.6244 26.9868 97.7097 26.9868Z" fill="white"/>
<path d="M89.0691 26.9868C87.9491 26.9868 87.0391 26.6228 86.3391 25.8948C85.6391 25.1668 85.2891 24.2008 85.2891 22.9968C85.2891 21.7928 85.6437 20.8314 86.3531 20.1128C87.0624 19.3848 87.9771 19.0208 89.0971 19.0208C90.2264 19.0208 91.1411 19.3708 91.8411 20.0708C92.5411 20.7614 92.8911 21.6668 92.8911 22.7868C92.8911 23.0574 92.8724 23.3094 92.8351 23.5428H86.9271C86.9644 24.1868 87.1791 24.7001 87.5711 25.0828C87.9724 25.4561 88.4717 25.6428 89.0691 25.6428C89.9371 25.6428 90.5484 25.2834 90.9031 24.5648H92.6251C92.3917 25.2741 91.9671 25.8574 91.3511 26.3148C90.7351 26.7628 89.9744 26.9868 89.0691 26.9868ZM91.2251 22.4508C91.2157 21.8161 91.0057 21.3121 90.5951 20.9388C90.1844 20.5561 89.6851 20.3648 89.0971 20.3648C88.5091 20.3648 88.0144 20.5561 87.6131 20.9388C87.2211 21.3121 86.9971 21.8161 86.9411 22.4508H91.2251Z" fill="white"/>
<path d="M78.3255 19.1468V20.3648C78.8388 19.4688 79.6602 19.0208 80.7895 19.0208C81.6575 19.0208 82.3715 19.3101 82.9315 19.8888C83.5008 20.4674 83.7855 21.2748 83.7855 22.3108V26.8608H82.2035V22.5488C82.2035 21.8581 82.0308 21.3308 81.6855 20.9668C81.3402 20.5934 80.8688 20.4068 80.2715 20.4068C79.6742 20.4068 79.1982 20.5934 78.8435 20.9668C78.4982 21.3308 78.3255 21.8581 78.3255 22.5488V26.8608H76.7295V19.1468H78.3255Z" fill="white"/>
<path d="M69.2337 19.1468V20.3648C69.747 19.4688 70.5684 19.0208 71.6977 19.0208C72.5657 19.0208 73.2797 19.3101 73.8397 19.8888C74.409 20.4674 74.6937 21.2748 74.6937 22.3108V26.8608H73.1117V22.5488C73.1117 21.8581 72.939 21.3308 72.5937 20.9668C72.2484 20.5934 71.777 20.4068 71.1797 20.4068C70.5824 20.4068 70.1064 20.5934 69.7517 20.9668C69.4064 21.3308 69.2337 21.8581 69.2337 22.5488V26.8608H67.6377V19.1468H69.2337Z" fill="white"/>
<path d="M63.7219 24.9428C64.1886 24.4761 64.4219 23.8274 64.4219 22.9968C64.4219 22.1661 64.1932 21.5221 63.7359 21.0648C63.2879 20.5981 62.7419 20.3648 62.0979 20.3648C61.4539 20.3648 60.9126 20.5981 60.4739 21.0648C60.0352 21.5221 59.8159 22.1708 59.8159 23.0108C59.8159 23.8414 60.0306 24.4901 60.4599 24.9568C60.8892 25.4141 61.4212 25.6428 62.0559 25.6428C62.6999 25.6428 63.2552 25.4094 63.7219 24.9428ZM62.0559 26.9868C60.9359 26.9868 60.0119 26.6228 59.2839 25.8948C58.5559 25.1574 58.1919 24.1961 58.1919 23.0108C58.1919 21.8161 58.5652 20.8548 59.3119 20.1268C60.0679 19.3894 61.0059 19.0208 62.1259 19.0208C63.2459 19.0208 64.1792 19.3894 64.9259 20.1268C65.6819 20.8548 66.0599 21.8114 66.0599 22.9968C66.0599 24.1821 65.6726 25.1434 64.8979 25.8808C64.1326 26.6181 63.1852 26.9868 62.0559 26.9868Z" fill="white"/>
<path d="M52.3196 26.9446C50.9289 26.9446 49.7529 26.478 48.7916 25.5446C47.8303 24.6113 47.3496 23.426 47.3496 21.9886C47.3496 20.542 47.8303 19.352 48.7916 18.4186C49.7529 17.476 50.9289 17.0046 52.3196 17.0046C53.3556 17.0046 54.2749 17.2613 55.0776 17.7746C55.8896 18.2786 56.4776 18.9973 56.8416 19.9306H54.9236C54.4009 18.9506 53.5329 18.4606 52.3196 18.4606C51.3396 18.4606 50.5369 18.7826 49.9116 19.4266C49.2956 20.0706 48.9876 20.9246 48.9876 21.9886C48.9876 23.0433 49.2956 23.8926 49.9116 24.5366C50.5369 25.1806 51.3396 25.5026 52.3196 25.5026C53.5329 25.5026 54.4009 25.0126 54.9236 24.0326H56.8416C56.4776 24.966 55.8896 25.6846 55.0776 26.1886C54.2749 26.6926 53.3556 26.9446 52.3196 26.9446Z" fill="white"/>
<path d="M140.79 25.1525H141.854C142.769 25.1525 143.488 24.8725 144.01 24.3125C144.533 23.7525 144.794 23.0012 144.794 22.0585C144.794 21.1159 144.533 20.3645 144.01 19.8045C143.488 19.2445 142.769 18.9645 141.854 18.9645H140.79V25.1525ZM141.854 17.1445C143.422 17.1445 144.71 17.6019 145.718 18.5165C146.726 19.4219 147.23 20.6025 147.23 22.0585C147.23 23.5052 146.726 24.6859 145.718 25.6005C144.71 26.5152 143.422 26.9725 141.854 26.9725H138.396V17.1445H141.854Z" fill="white"/>
<path d="M133.898 26.9725V17.1445H136.292V26.9725H133.898Z" fill="white"/>
<path d="M124.089 25.6426C123.118 24.6906 122.633 23.4866 122.633 22.0306C122.633 20.5746 123.118 19.3753 124.089 18.4326C125.069 17.4806 126.263 17.0046 127.673 17.0046C128.765 17.0046 129.735 17.294 130.585 17.8726C131.434 18.4513 132.027 19.254 132.363 20.2806H129.507C129.133 19.562 128.536 19.2026 127.715 19.2026C126.893 19.2026 126.245 19.4593 125.769 19.9726C125.302 20.486 125.069 21.172 125.069 22.0306C125.069 22.8893 125.302 23.5753 125.769 24.0886C126.245 24.602 126.893 24.8586 127.715 24.8586C128.536 24.8586 129.133 24.4993 129.507 23.7806H132.363C132.027 24.8073 131.434 25.61 130.585 26.1886C129.735 26.7673 128.765 27.0566 127.673 27.0566C126.263 27.0566 125.069 26.5853 124.089 25.6426Z" fill="white"/>
<path d="M118.516 24.0886C118.992 23.5753 119.23 22.8893 119.23 22.0306C119.23 21.172 118.992 20.486 118.516 19.9726C118.049 19.4593 117.419 19.2026 116.626 19.2026C115.842 19.2026 115.212 19.4593 114.736 19.9726C114.269 20.486 114.036 21.172 114.036 22.0306C114.036 22.8893 114.269 23.5753 114.736 24.0886C115.212 24.602 115.842 24.8586 116.626 24.8586C117.419 24.8586 118.049 24.602 118.516 24.0886ZM113.056 25.6426C112.085 24.6906 111.6 23.4866 111.6 22.0306C111.6 20.5746 112.085 19.3753 113.056 18.4326C114.036 17.4806 115.23 17.0046 116.64 17.0046C118.058 17.0046 119.248 17.4806 120.21 18.4326C121.18 19.3753 121.666 20.5746 121.666 22.0306C121.666 23.4866 121.18 24.6906 120.21 25.6426C119.239 26.5946 118.049 27.0706 116.64 27.0706C115.23 27.0706 114.036 26.5946 113.056 25.6426Z" fill="white"/>
</svg>
